GSerif01-TextRegular 03.ufo
<glyph name="ampersand" format="1">
  <advance width="737"/>
  <unicode hex="0026"/>
  <outline>
    <contour>
      <point x="584" y="0" type="curve"/>
      <point x="620" y="0"/>
      <point x="698" y="0"/>
      <point x="716" y="0" type="curve"/>
      <point x="395" y="252"/>
      <point x="282" y="410"/>
      <point x="282" y="549" type="curve" smooth="yes"/>
      <point x="282" y="630"/>
      <point x="322.0" y="663.0"/>
      <point x="376.0" y="663.0" type="curve" smooth="yes"/>
      <point x="426.0" y="663.0"/>
      <point x="454.0" y="630.0"/>
      <point x="454.0" y="577.0" type="curve" smooth="yes"/>
      <point x="454.0" y="506.0"/>
      <point x="398.0" y="474.0"/>
      <point x="293.0" y="430.0" type="curve"/>
      <point x="315.0" y="387.0" type="line"/>
      <point x="433.0" y="429.0"/>
      <point x="532.0" y="488.0"/>
      <point x="532.0" y="585.0" type="curve" smooth="yes"/>
      <point x="532.0" y="665.0"/>
      <point x="476.0" y="718.0"/>
      <point x="376.0" y="718.0" type="curve" smooth="yes"/>
      <point x="270.0" y="718.0"/>
      <point x="194" y="653"/>
      <point x="194" y="552" type="curve" smooth="yes"/>
      <point x="194" y="388"/>
      <point x="356" y="188"/>
    </contour>
    <contour>
      <point x="623" y="311" type="curve" smooth="yes"/>
      <point x="630" y="344"/>
      <point x="657" y="349"/>
      <point x="702" y="349" type="curve" smooth="yes"/>
      <point x="704" y="349" type="line"/>
      <point x="704" y="394" type="line"/>
      <point x="490" y="394" type="line"/>
      <point x="490" y="349" type="line"/>
      <point x="492" y="349" type="line" smooth="yes"/>
      <point x="520" y="349"/>
      <point x="565" y="346"/>
      <point x="565" y="339" type="curve" smooth="yes"/>
      <point x="565" y="219"/>
      <point x="475" y="45"/>
      <point x="313" y="45" type="curve" smooth="yes"/>
      <point x="206" y="45"/>
      <point x="153" y="108"/>
      <point x="153" y="206" type="curve" smooth="yes"/>
      <point x="153" y="296"/>
      <point x="210" y="350"/>
      <point x="293" y="381" type="curve"/>
      <point x="288" y="390"/>
      <point x="283" y="408"/>
      <point x="271" y="422" type="curve"/>
      <point x="147" y="388"/>
      <point x="55" y="314"/>
      <point x="55" y="200" type="curve" smooth="yes"/>
      <point x="55" y="74"/>
      <point x="150" y="-10"/>
      <point x="304" y="-10" type="curve" smooth="yes"/>
      <point x="515" y="-10"/>
      <point x="604" y="220"/>
    </contour>
  </outline>
</glyph>
<glyph name="seven" format="1">
  <advance width="600"/>
  <unicode hex="0037"/>
  <outline>
    <contour>
      <point x="269" y="532" type="line" smooth="yes"/>
      <point x="183" y="532"/>
      <point x="148" y="525"/>
      <point x="144" y="489" type="curve" smooth="yes"/>
      <point x="135" y="399" type="line"/>
      <point x="82" y="399" type="line"/>
      <point x="82" y="609" type="line"/>
      <point x="551" y="609" type="line"/>
      <point x="551" y="533" type="line"/>
      <point x="435" y="364"/>
      <point x="334" y="230"/>
      <point x="306" y="-77" type="curve"/>
      <point x="209" y="-77" type="line"/>
      <point x="241" y="225"/>
      <point x="441" y="483"/>
      <point x="496" y="546" type="curve"/>
      <point x="507" y="532" type="line"/>
    </contour>
  </outline>
</glyph>
<glyph name="eight" format="1">
  <advance width="600"/>
  <unicode hex="0038"/>
  <outline>
    <contour>
      <point x="308" y="406" type="line"/>
      <point x="371" y="425"/>
      <point x="420" y="473"/>
      <point x="420" y="549" type="curve" smooth="yes"/>
      <point x="420" y="614"/>
      <point x="377" y="660"/>
      <point x="307" y="660" type="curve" smooth="yes"/>
      <point x="238" y="660"/>
      <point x="185" y="625"/>
      <point x="185" y="563" type="curve" smooth="yes"/>
      <point x="185" y="492"/>
      <point x="243" y="456"/>
      <point x="314" y="426" type="curve" smooth="yes"/>
      <point x="420" y="381"/>
      <point x="552" y="342"/>
      <point x="552" y="202" type="curve" smooth="yes"/>
      <point x="552" y="77"/>
      <point x="447" y="-10"/>
      <point x="300" y="-10" type="curve" smooth="yes"/>
      <point x="154" y="-10"/>
      <point x="48" y="73"/>
      <point x="48" y="193" type="curve" smooth="yes"/>
      <point x="48" y="310"/>
      <point x="159" y="386"/>
      <point x="285" y="406" type="curve"/>
      <point x="286" y="365" type="line"/>
      <point x="208" y="344"/>
      <point x="141" y="288"/>
      <point x="141" y="193" type="curve" smooth="yes"/>
      <point x="141" y="105"/>
      <point x="203" y="50"/>
      <point x="300" y="50" type="curve" smooth="yes"/>
      <point x="396" y="50"/>
      <point x="458" y="101"/>
      <point x="458" y="177" type="curve" smooth="yes"/>
      <point x="458" y="289"/>
      <point x="351" y="322"/>
      <point x="254" y="363" type="curve" smooth="yes"/>
      <point x="171" y="398"/>
      <point x="97" y="442"/>
      <point x="97" y="548" type="curve" smooth="yes"/>
      <point x="97" y="650"/>
      <point x="189" y="720"/>
      <point x="307" y="720" type="curve" smooth="yes"/>
      <point x="427" y="720"/>
      <point x="505" y="648"/>
      <point x="505" y="559" type="curve" smooth="yes"/>
      <point x="505" y="450"/>
      <point x="416" y="387"/>
      <point x="307" y="369" type="curve"/>
    </contour>
  </outline>
</glyph>
<glyph name="acute" format="1">
  <advance width="500"/>
  <unicode hex="00B4"/>
  <outline>
    <contour>
      <point x="232" y="703" type="curve" smooth="yes"/>
      <point x="191" y="586" type="line"/>
      <point x="191" y="566" type="line"/>
      <point x="221" y="566" type="line"/>
      <point x="301" y="657" type="line" smooth="yes"/>
      <point x="319" y="677"/>
      <point x="330" y="698"/>
      <point x="330" y="716" type="curve" smooth="yes"/>
      <point x="330" y="738"/>
      <point x="313" y="755"/>
      <point x="288" y="755" type="curve" smooth="yes"/>
      <point x="263" y="755"/>
      <point x="244" y="738"/>
    </contour>
  </outline>
</glyph>
<glyph name="OE" format="1">
  <advance width="1020"/>
  <unicode hex="0152"/>
  <outline>
    <contour>
      <point x="422" y="57" type="line" smooth="yes"/>
      <point x="251" y="57"/>
      <point x="145" y="164"/>
      <point x="145" y="353" type="curve" smooth="yes"/>
      <point x="145" y="542"/>
      <point x="251" y="653"/>
      <point x="422" y="653" type="curve" smooth="yes"/>
      <point x="525" y="653" type="line"/>
      <point x="525" y="57" type="line"/>
    </contour>
    <contour>
      <point x="588" y="389" type="line"/>
      <point x="588" y="337" type="line"/>
      <point x="831" y="329" type="line"/>
      <point x="831" y="397" type="line"/>
    </contour>
    <contour>
      <point x="930" y="710" type="line"/>
      <point x="422" y="710" type="line" smooth="yes"/>
      <point x="199" y="710"/>
      <point x="47" y="569"/>
      <point x="47" y="353" type="curve" smooth="yes"/>
      <point x="47" y="136"/>
      <point x="199" y="0"/>
      <point x="422" y="0" type="curve" smooth="yes"/>
      <point x="960" y="0" type="line"/>
      <point x="960" y="215" type="line"/>
      <point x="903" y="215" type="line"/>
      <point x="894" y="100" type="line" smooth="yes"/>
      <point x="891" y="64"/>
      <point x="855" y="57"/>
      <point x="769" y="57" type="curve" smooth="yes"/>
      <point x="618" y="57" type="line"/>
      <point x="618" y="653" type="line"/>
      <point x="740" y="653" type="line" smooth="yes"/>
      <point x="826" y="653"/>
      <point x="861" y="646"/>
      <point x="865" y="610" type="curve" smooth="yes"/>
      <point x="874" y="520" type="line"/>
      <point x="930" y="520" type="line"/>
    </contour>
  </outline>
</glyph>
<glyph name="guilsinglleft" format="1">
  <advance width="291"/>
  <unicode hex="2039"/>
  <outline>
    <contour>
      <point x="113" y="213" type="line"/>
      <point x="251" y="455" type="line"/>
      <point x="201" y="455" type="line"/>
      <point x="40" y="285" type="line"/>
      <point x="40" y="245" type="line"/>
      <point x="201" y="75" type="line"/>
      <point x="251" y="75" type="line"/>
      <point x="114" y="313" type="line"/>
    </contour>
  </outline>
</glyph>
<glyph name="franc" format="1">
  <advance width="600"/>
  <unicode hex="20A3"/>
  <outline>
    <contour>
      <point x="75" y="0" type="line"/>
      <point x="376" y="0" type="line"/>
      <point x="376" y="47" type="line"/>
      <point x="359" y="47" type="line" smooth="yes"/>
      <point x="316" y="47"/>
      <point x="264" y="48"/>
      <point x="264" y="83" type="curve" smooth="yes"/>
      <point x="264" y="552" type="line"/>
      <point x="359" y="552" type="line" smooth="yes"/>
      <point x="445" y="552"/>
      <point x="480" y="545"/>
      <point x="484" y="509" type="curve" smooth="yes"/>
      <point x="492" y="435" type="line"/>
      <point x="550" y="435" type="line"/>
      <point x="550" y="609" type="line"/>
      <point x="75" y="609" type="line"/>
      <point x="75" y="562" type="line"/>
      <point x="86" y="562" type="line" smooth="yes"/>
      <point x="135" y="562"/>
      <point x="171" y="555"/>
      <point x="171" y="526" type="curve" smooth="yes"/>
      <point x="171" y="83" type="line" smooth="yes"/>
      <point x="171" y="54"/>
      <point x="135" y="47"/>
      <point x="86" y="47" type="curve" smooth="yes"/>
      <point x="75" y="47" type="line"/>
    </contour>
    <contour>
      <point x="75" y="399" type="line"/>
      <point x="75" y="347" type="line"/>
      <point x="433" y="347" type="line"/>
      <point x="433" y="399" type="line"/>
    </contour>
    <contour>
      <point x="75" y="244" type="line"/>
      <point x="75" y="192" type="line"/>
      <point x="433" y="192" type="line"/>
      <point x="433" y="244" type="line"/>
    </contour>
  </outline>
</glyph>
<glyph name="lira" format="1">
  <advance width="600"/>
  <unicode hex="20A4"/>
  <outline>
    <contour>
      <point x="48" y="-11" type="line"/>
      <point x="193" y="8"/>
      <point x="259" y="83"/>
      <point x="259" y="202" type="curve" smooth="yes"/>
      <point x="259" y="300"/>
      <point x="201" y="347"/>
      <point x="201" y="438" type="curve" smooth="yes"/>
      <point x="201" y="516"/>
      <point x="252" y="559"/>
      <point x="328" y="559" type="curve" smooth="yes"/>
      <point x="398" y="559"/>
      <point x="439" y="532"/>
      <point x="467" y="483" type="curve"/>
      <point x="466" y="523"/>
      <point x="455" y="545"/>
      <point x="429" y="547" type="curve"/>
      <point x="429" y="454" type="line"/>
      <point x="517" y="454" type="line"/>
      <point x="517" y="532" type="line"/>
      <point x="490" y="578"/>
      <point x="425" y="619"/>
      <point x="328" y="619" type="curve" smooth="yes"/>
      <point x="195" y="619"/>
      <point x="107" y="547"/>
      <point x="107" y="433" type="curve" smooth="yes"/>
      <point x="107" y="342"/>
      <point x="181" y="286"/>
      <point x="181" y="187" type="curve" smooth="yes"/>
      <point x="181" y="109"/>
      <point x="150" y="74"/>
      <point x="48" y="55" type="curve"/>
    </contour>
    <contour>
      <point x="188" y="112" type="curve"/>
      <point x="283" y="30"/>
      <point x="314" y="-10"/>
      <point x="391" y="-10" type="curve" smooth="yes"/>
      <point x="490" y="-10"/>
      <point x="540" y="70"/>
      <point x="557" y="160" type="curve"/>
      <point x="501" y="178" type="line"/>
      <point x="483" y="109"/>
      <point x="459" y="78"/>
      <point x="403" y="78" type="curve" smooth="yes"/>
      <point x="344" y="78"/>
      <point x="285" y="99"/>
      <point x="222" y="161" type="curve"/>
      <point x="195" y="155"/>
      <point x="180" y="123"/>
    </contour>
    <contour>
      <point x="48" y="392" type="line"/>
      <point x="48" y="340" type="line"/>
      <point x="413" y="340" type="line"/>
      <point x="413" y="392" type="line"/>
    </contour>
    <contour>
      <point x="48" y="257" type="line"/>
      <point x="48" y="205" type="line"/>
      <point x="413" y="205" type="line"/>
      <point x="413" y="257" type="line"/>
    </contour>
  </outline>
</glyph>
<glyph name="kip" format="1">
  <advance width="600"/>
  <unicode hex="20AD"/>
  <outline>
    <contour>
      <point x="587" y="47" type="line"/>
      <point x="576" y="47" type="line" smooth="yes"/>
      <point x="540" y="47"/>
      <point x="532" y="56"/>
      <point x="491" y="111" type="curve" smooth="yes"/>
      <point x="304" y="365" type="line"/>
      <point x="310" y="320" type="line"/>
      <point x="499" y="533" type="line" smooth="yes"/>
      <point x="517" y="553"/>
      <point x="531" y="562"/>
      <point x="557" y="562" type="curve" smooth="yes"/>
      <point x="568" y="562" type="line"/>
      <point x="568" y="609" type="line"/>
      <point x="372" y="609" type="line"/>
      <point x="372" y="562" type="line"/>
      <point x="381" y="562" type="line" smooth="yes"/>
      <point x="407" y="562"/>
      <point x="437" y="559"/>
      <point x="439" y="552" type="curve"/>
      <point x="243" y="327" type="line"/>
      <point x="236" y="309" type="line"/>
      <point x="411" y="57" type="line"/>
      <point x="411" y="50"/>
      <point x="377" y="47"/>
      <point x="349" y="47" type="curve" smooth="yes"/>
      <point x="340" y="47" type="line"/>
      <point x="340" y="0" type="line"/>
      <point x="587" y="0" type="line"/>
    </contour>
    <contour>
      <point x="40" y="0" type="line"/>
      <point x="272" y="0" type="line"/>
      <point x="272" y="47" type="line"/>
      <point x="263" y="47" type="line" smooth="yes"/>
      <point x="236" y="47"/>
      <point x="204" y="50"/>
      <point x="204" y="57" type="curve" smooth="yes"/>
      <point x="204" y="552" type="line" smooth="yes"/>
      <point x="204" y="559"/>
      <point x="236" y="562"/>
      <point x="263" y="562" type="curve" smooth="yes"/>
      <point x="272" y="562" type="line"/>
      <point x="272" y="609" type="line"/>
      <point x="40" y="609" type="line"/>
      <point x="40" y="562" type="line"/>
      <point x="51" y="562" type="line" smooth="yes"/>
      <point x="85" y="562"/>
      <point x="111" y="555"/>
      <point x="111" y="526" type="curve" smooth="yes"/>
      <point x="111" y="83" type="line" smooth="yes"/>
      <point x="111" y="54"/>
      <point x="85" y="47"/>
      <point x="51" y="47" type="curve" smooth="yes"/>
      <point x="40" y="47" type="line"/>
    </contour>
    <contour>
      <point x="40" y="347" type="line"/>
      <point x="40" y="295" type="line"/>
      <point x="524" y="295" type="line"/>
      <point x="524" y="347" type="line"/>
    </contour>
  </outline>
</glyph>
<glyph name="peso" format="1">
  <advance width="600"/>
  <unicode hex="20B1"/>
  <outline>
    <contour>
      <point x="35" y="0" type="line"/>
      <point x="318" y="0" type="line"/>
      <point x="318" y="47" type="line"/>
      <point x="291" y="47" type="line" smooth="yes"/>
      <point x="259" y="47"/>
      <point x="219" y="50"/>
      <point x="219" y="57" type="curve" smooth="yes"/>
      <point x="219" y="178" type="line"/>
      <point x="243" y="178" type="line" smooth="yes"/>
      <point x="403.8939393939394" y="178"/>
      <point x="502.0" y="268.0"/>
      <point x="502" y="397" type="curve" smooth="yes"/>
      <point x="502.0" y="526.0"/>
      <point x="407.8532818532818" y="609"/>
      <point x="248" y="609" type="curve" smooth="yes"/>
      <point x="35" y="609" type="line"/>
      <point x="35" y="562" type="line"/>
      <point x="46" y="562" type="line" smooth="yes"/>
      <point x="92" y="562"/>
      <point x="126" y="555"/>
      <point x="126" y="526" type="curve" smooth="yes"/>
      <point x="126" y="83" type="line" smooth="yes"/>
      <point x="126" y="54"/>
      <point x="92" y="47"/>
      <point x="46" y="47" type="curve" smooth="yes"/>
      <point x="35" y="47" type="line"/>
    </contour>
    <contour>
      <point x="247" y="554" type="line" smooth="yes"/>
      <point x="352.6564417177914" y="554"/>
      <point x="405.0" y="495.0"/>
      <point x="405" y="396" type="curve" smooth="yes"/>
      <point x="405.0" y="297.0"/>
      <point x="352.6071428571429" y="231"/>
      <point x="242" y="231" type="curve" smooth="yes"/>
      <point x="219" y="231" type="line"/>
      <point x="219" y="554" type="line"/>
    </contour>
    <contour>
      <point x="35" y="493" type="line"/>
      <point x="35" y="441" type="line"/>
      <point x="572" y="441" type="line"/>
      <point x="572" y="493" type="line"/>
    </contour>
    <contour>
      <point x="35" y="346" type="line"/>
      <point x="35" y="294" type="line"/>
      <point x="572" y="294" type="line"/>
      <point x="572" y="346" type="line"/>
    </contour>
  </outline>
</glyph>
<glyph name="Eng.alt" format="1">
  <advance width="800"/>
  <outline>
    <contour>
      <point x="481" y="-148" type="curve" smooth="yes"/>
      <point x="546.5801526717557" y="-148.0"/>
      <point x="602" y="-108.0"/>
      <point x="602" y="-11" type="curve" smooth="yes"/>
      <point x="602" y="28" type="line"/>
      <point x="643" y="-84" type="line"/>
      <point x="192" y="670" type="line"/>
      <point x="206" y="674" type="line"/>
      <point x="206" y="62" type="line" smooth="yes"/>
      <point x="206" y="55"/>
      <point x="255" y="47"/>
      <point x="298" y="47" type="curve" smooth="yes"/>
      <point x="312" y="47" type="line"/>
      <point x="312" y="0" type="line"/>
      <point x="45" y="0" type="line"/>
      <point x="45" y="47" type="line"/>
      <point x="56" y="47" type="line" smooth="yes"/>
      <point x="105" y="47"/>
      <point x="141" y="59"/>
      <point x="141" y="88" type="curve" smooth="yes"/>
      <point x="141" y="627" type="line" smooth="yes"/>
      <point x="141" y="656"/>
      <point x="105" y="663"/>
      <point x="56" y="663" type="curve" smooth="yes"/>
      <point x="45" y="663" type="line"/>
      <point x="45" y="710" type="line"/>
      <point x="268" y="710" type="line"/>
      <point x="635" y="103" type="line"/>
      <point x="602" y="90" type="line"/>
      <point x="602" y="648" type="line" smooth="yes"/>
      <point x="602" y="655"/>
      <point x="553" y="663"/>
      <point x="510" y="663" type="curve" smooth="yes"/>
      <point x="496" y="663" type="line"/>
      <point x="496" y="710" type="line"/>
      <point x="763" y="710" type="line"/>
      <point x="763" y="663" type="line"/>
      <point x="751" y="663" type="line" smooth="yes"/>
      <point x="702" y="663"/>
      <point x="666" y="651"/>
      <point x="666" y="622" type="curve"/>
      <point x="666" y="-11" type="line" smooth="yes"/>
      <point x="666" y="-160.0"/>
      <point x="568.3645833333334" y="-212.0"/>
      <point x="484" y="-212" type="curve" smooth="yes"/>
      <point x="407.28323699421964" y="-212.0"/>
      <point x="347.5822594075547" y="-187.54309622701297"/>
      <point x="316" y="-153" type="curve"/>
      <point x="316" y="-51" type="line"/>
      <point x="408" y="-51" type="line"/>
      <point x="408" y="-144" type="line"/>
      <point x="357" y="-128"/>
      <point x="355" y="-58"/>
      <point x="388" y="-108" type="curve"/>
      <point x="403.7918969341263" y="-134.64882607633817"/>
      <point x="432.6020408163265" y="-148.0"/>
    </contour>
  </outline>
</glyph>
<glyph name="colonsign" format="1">
  <advance width="600"/>
  <outline>
    <contour>
      <point x="310" y="552" type="curve" smooth="yes"/>
      <point x="398" y="552"/>
      <point x="439.97312611909996" y="485.10627398355916"/>
      <point x="462" y="398" type="curve"/>
      <point x="540" y="398" type="line"/>
      <point x="540" y="599" type="line"/>
      <point x="492" y="599" type="line"/>
      <point x="478" y="447" type="line"/>
      <point x="481.02116315833297" y="432.9012385944463"/>
      <point x="488.39945318646846" y="457.7089914884488"/>
      <point x="501" y="460" type="curve"/>
      <point x="468.9402639022495" y="548.1642742688139"/>
      <point x="404" y="609"/>
      <point x="309" y="609" type="curve" smooth="yes"/>
      <point x="158" y="609"/>
      <point x="34" y="481"/>
      <point x="34" y="300" type="curve" smooth="yes"/>
      <point x="34" y="116"/>
      <point x="148" y="-10"/>
      <point x="315" y="-10" type="curve" smooth="yes"/>
      <point x="435" y="-10"/>
      <point x="511" y="69"/>
      <point x="545" y="189" type="curve"/>
      <point x="487" y="212" type="line"/>
      <point x="456.948533719642" y="117.8387389882115"/>
      <point x="407.5644171779141" y="48.0"/>
      <point x="321" y="48" type="curve" smooth="yes"/>
      <point x="191.0" y="48.0"/>
      <point x="121" y="143"/>
      <point x="121" y="300" type="curve" smooth="yes"/>
      <point x="121" y="452"/>
      <point x="196" y="552"/>
    </contour>
    <contour>
      <point x="251" y="684" type="line"/>
      <point x="120" y="-120" type="line"/>
      <point x="175" y="-120" type="line"/>
      <point x="306" y="684" type="line"/>
    </contour>
    <contour>
      <point x="387" y="684" type="line"/>
      <point x="256" y="-120" type="line"/>
      <point x="311" y="-120" type="line"/>
      <point x="442" y="684" type="line"/>
    </contour>
  </outline>
</glyph>
<glyph name="dollar.lin" format="1">
  <advance width="600"/>
  <outline>
    <contour>
      <point x="327" y="65" type="curve" smooth="yes"/>
      <point x="233.84158415841583" y="65.0"/>
      <point x="152" y="120"/>
      <point x="132" y="228" type="curve"/>
      <point x="50" y="228" type="line"/>
      <point x="50" y="18" type="line"/>
      <point x="105" y="18" type="line"/>
      <point x="118" y="179" type="line"/>
      <point x="116" y="184"/>
      <point x="103" y="166"/>
      <point x="92" y="170" type="curve"/>
      <point x="131" y="54"/>
      <point x="231.75303643724698" y="8.0"/>
      <point x="331" y="8" type="curve" smooth="yes"/>
      <point x="452.55947136563873" y="8.0"/>
      <point x="550.0" y="75.0"/>
      <point x="550" y="198" type="curve" smooth="yes"/>
      <point x="550.0" y="330.0"/>
      <point x="437.61243914197485" y="372.35343531289317"/>
      <point x="333" y="399" type="curve" smooth="yes"/>
      <point x="238.92206095249892" y="423.2468915070879"/>
      <point x="155.0" y="445.0"/>
      <point x="155" y="532" type="curve" smooth="yes"/>
      <point x="155.0" y="603.0"/>
      <point x="201.89655172413794" y="646.0"/>
      <point x="291" y="646" type="curve" smooth="yes"/>
      <point x="378.4698795180723" y="646.0"/>
      <point x="445" y="597"/>
      <point x="456" y="516" type="curve"/>
      <point x="526" y="516" type="line"/>
      <point x="526" y="692" type="line"/>
      <point x="473" y="692" type="line"/>
      <point x="463" y="555" type="line"/>
      <point x="473" y="551"/>
      <point x="479" y="558"/>
      <point x="484" y="566" type="curve"/>
      <point x="447.0197520060904" y="671.943413171741"/>
      <point x="370.49523809523816" y="702.0"/>
      <point x="282" y="702" type="curve" smooth="yes"/>
      <point x="166.11267605633805" y="702.0"/>
      <point x="78.0" y="633.0"/>
      <point x="78" y="524" type="curve"/>
      <point x="78.0" y="393.0"/>
      <point x="183.86445325018963" y="359.4980318172567"/>
      <point x="286" y="332" type="curve" smooth="yes"/>
      <point x="379.6366612369572" y="307.6154528028757"/>
      <point x="468.0" y="285.0"/>
      <point x="468" y="182" type="curve" smooth="yes"/>
      <point x="468.0" y="99.0"/>
      <point x="415.00671140939596" y="65.0"/>
    </contour>
    <contour>
      <point x="274" y="790" type="line"/>
      <point x="274" y="-120" type="line"/>
      <point x="334" y="-120" type="line"/>
      <point x="334" y="790" type="line"/>
    </contour>
  </outline>
</glyph>
<glyph name="eight.altlin" format="1">
  <advance width="600"/>
  <outline>
    <contour>
      <point x="308" y="406" type="line"/>
      <point x="371.38286938548197" y="424.9202595180543"/>
      <point x="420.0" y="473.0"/>
      <point x="420" y="549" type="curve" smooth="yes"/>
      <point x="420.0" y="614.0"/>
      <point x="376.68333333333334" y="660.0"/>
      <point x="307" y="660" type="curve" smooth="yes"/>
      <point x="237.9612403100775" y="660.0"/>
      <point x="185.0" y="625.0"/>
      <point x="185" y="563" type="curve" smooth="yes"/>
      <point x="185.0" y="492.0"/>
      <point x="243.23792116805976" y="455.6435735647317"/>
      <point x="314" y="426" type="curve" smooth="yes"/>
      <point x="420.3575622158756" y="381.11515722999746"/>
      <point x="552.0" y="342.0"/>
      <point x="552" y="202" type="curve" smooth="yes"/>
      <point x="552.0" y="76.99999999999999"/>
      <point x="446.91891891891896" y="-10.0"/>
      <point x="300" y="-10" type="curve" smooth="yes"/>
      <point x="154.05405405405406" y="-10.0"/>
      <point x="48.0" y="72.99999999999999"/>
      <point x="48" y="193" type="curve" smooth="yes"/>
      <point x="48.0" y="310.0"/>
      <point x="158.63441925726795" y="385.5870984954048"/>
      <point x="285" y="406" type="curve"/>
      <point x="286" y="365" type="line"/>
      <point x="208.47298223872662" y="343.9432791265677"/>
      <point x="141.0" y="288.0"/>
      <point x="141" y="193" type="curve" smooth="yes"/>
      <point x="141.0" y="105.0"/>
      <point x="203.25903614457832" y="50.0"/>
      <point x="300" y="50" type="curve" smooth="yes"/>
      <point x="395.75757575757575" y="50.0"/>
      <point x="458.0" y="101.0"/>
      <point x="458" y="177" type="curve" smooth="yes"/>
      <point x="458.0" y="289.0"/>
      <point x="351.1812087603423" y="322.18389232065624"/>
      <point x="254" y="363" type="curve" smooth="yes"/>
      <point x="171.12160027896783" y="397.693283604153"/>
      <point x="97.0" y="442.0"/>
      <point x="97" y="548" type="curve" smooth="yes"/>
      <point x="97.0" y="650.0"/>
      <point x="188.93548387096774" y="720.0"/>
      <point x="307" y="720" type="curve" smooth="yes"/>
      <point x="426.76585365853657" y="720.0"/>
      <point x="505.0" y="648.0"/>
      <point x="505" y="559" type="curve" smooth="yes"/>
      <point x="505.0" y="450.0"/>
      <point x="416.2478747131888" y="387.3691116774388"/>
      <point x="307" y="369" type="curve"/>
    </contour>
  </outline>
</glyph>
<glyph name="eight.lin" format="1">
  <advance width="600"/>
  <outline>
    <contour>
      <point x="300" y="-10" type="curve" smooth="yes"/>
      <point x="452" y="-10"/>
      <point x="562" y="77"/>
      <point x="562" y="199" type="curve" smooth="yes"/>
      <point x="562" y="323"/>
      <point x="447" y="400"/>
      <point x="300" y="400" type="curve" smooth="yes"/>
      <point x="153" y="400"/>
      <point x="38" y="323"/>
      <point x="38" y="199" type="curve" smooth="yes"/>
      <point x="38" y="77"/>
      <point x="148" y="-10"/>
    </contour>
    <contour>
      <point x="300" y="360" type="curve" smooth="yes"/>
      <point x="400" y="360"/>
      <point x="464" y="302"/>
      <point x="464" y="204" type="curve" smooth="yes"/>
      <point x="464" y="112"/>
      <point x="400" y="50"/>
      <point x="300" y="50" type="curve" smooth="yes"/>
      <point x="200" y="50"/>
      <point x="136" y="112"/>
      <point x="136" y="204" type="curve" smooth="yes"/>
      <point x="136" y="302"/>
      <point x="200" y="360"/>
    </contour>
    <contour>
      <point x="300" y="380" type="curve" smooth="yes"/>
      <point x="419" y="380"/>
      <point x="514" y="445"/>
      <point x="514" y="550" type="curve" smooth="yes"/>
      <point x="514" y="650"/>
      <point x="424" y="720"/>
      <point x="300" y="720" type="curve" smooth="yes"/>
      <point x="176" y="720"/>
      <point x="86" y="650"/>
      <point x="86" y="550" type="curve" smooth="yes"/>
      <point x="86" y="445"/>
      <point x="181" y="380"/>
    </contour>
    <contour>
      <point x="300" y="660" type="curve" smooth="yes"/>
      <point x="375" y="660"/>
      <point x="424" y="613"/>
      <point x="424" y="540" type="curve" smooth="yes"/>
      <point x="424" y="467"/>
      <point x="375" y="420"/>
      <point x="300" y="420" type="curve" smooth="yes"/>
      <point x="225" y="420"/>
      <point x="176" y="467"/>
      <point x="176" y="540" type="curve" smooth="yes"/>
      <point x="176" y="613"/>
      <point x="225" y="660"/>
    </contour>
  </outline>
</glyph>
<glyph name="naira.lin" format="1">
  <advance width="600"/>
  <outline>
    <contour>
      <point x="35" y="0" type="line"/>
      <point x="252" y="0" type="line"/>
      <point x="252" y="47" type="line"/>
      <point x="238" y="47" type="line" smooth="yes"/>
      <point x="209" y="47"/>
      <point x="174" y="55"/>
      <point x="174" y="62" type="curve" smooth="yes"/>
      <point x="174" y="694" type="line"/>
      <point x="156" y="701" type="line"/>
      <point x="381" y="0" type="line"/>
      <point x="490" y="0" type="line"/>
      <point x="490" y="622" type="line" smooth="yes"/>
      <point x="490" y="651.0"/>
      <point x="517" y="663"/>
      <point x="552" y="663" type="curve" smooth="yes"/>
      <point x="565" y="663" type="line"/>
      <point x="565" y="710" type="line"/>
      <point x="350" y="710" type="line"/>
      <point x="350" y="663" type="line"/>
      <point x="364" y="663" type="line" smooth="yes"/>
      <point x="393.0625" y="663"/>
      <point x="426" y="655.0"/>
      <point x="426" y="648" type="curve" smooth="yes"/>
      <point x="426" y="41" type="line"/>
      <point x="436" y="52" type="line"/>
      <point x="239" y="710" type="line"/>
      <point x="35" y="710" type="line"/>
      <point x="35" y="663" type="line"/>
      <point x="47" y="663" type="line" smooth="yes"/>
      <point x="82" y="663"/>
      <point x="109" y="656.0"/>
      <point x="109" y="627" type="curve" smooth="yes"/>
      <point x="109" y="88" type="line" smooth="yes"/>
      <point x="109" y="59.0"/>
      <point x="82.2923076923077" y="47"/>
      <point x="47" y="47" type="curve" smooth="yes"/>
      <point x="35" y="47" type="line"/>
    </contour>
    <contour>
      <point x="35" y="439" type="line"/>
      <point x="35" y="387" type="line"/>
      <point x="565" y="387" type="line"/>
      <point x="565" y="439" type="line"/>
    </contour>
    <contour>
      <point x="35" y="284" type="line"/>
      <point x="35" y="232" type="line"/>
      <point x="565" y="232" type="line"/>
      <point x="565" y="284" type="line"/>
    </contour>
  </outline>
</glyph>
<glyph name="nine.old" format="1">
  <advance width="600"/>
  <outline>
    <contour>
      <point x="108" y="-92" type="line"/>
      <point x="330" y="-82"/>
      <point x="457" y="43"/>
      <point x="457" y="248" type="curve" smooth="yes"/>
      <point x="457" y="428"/>
      <point x="389" y="498"/>
      <point x="290" y="498" type="curve" smooth="yes"/>
      <point x="198" y="498"/>
      <point x="143" y="436"/>
      <point x="143" y="336" type="curve" smooth="yes"/>
      <point x="143" y="246"/>
      <point x="185" y="182"/>
      <point x="274" y="182" type="curve" smooth="yes"/>
      <point x="368" y="182"/>
      <point x="436" y="249"/>
      <point x="471" y="335" type="curve"/>
      <point x="482" y="283" type="line"/>
      <point x="458" y="205"/>
      <point x="373" y="122"/>
      <point x="262" y="122" type="curve" smooth="yes"/>
      <point x="138" y="122"/>
      <point x="45" y="205"/>
      <point x="45" y="336" type="curve" smooth="yes"/>
      <point x="45" y="467"/>
      <point x="148" y="558"/>
      <point x="290" y="558" type="curve" smooth="yes"/>
      <point x="440" y="558"/>
      <point x="552" y="457"/>
      <point x="552" y="248" type="curve" smooth="yes"/>
      <point x="552" y="28"/>
      <point x="391" y="-137"/>
      <point x="118" y="-152" type="curve"/>
    </contour>
  </outline>
</glyph>
<glyph name="question.alt2" format="1">
  <advance width="519"/>
  <outline>
    <contour>
      <point x="404" y="261" type="line"/>
      <point x="382" y="226"/>
      <point x="327" y="183"/>
      <point x="255" y="183" type="curve" smooth="yes"/>
      <point x="169" y="183"/>
      <point x="109" y="225"/>
      <point x="109" y="298" type="curve" smooth="yes"/>
      <point x="109" y="463"/>
      <point x="367.0" y="418.0869565217391"/>
      <point x="367" y="567" type="curve" smooth="yes"/>
      <point x="367" y="631"/>
      <point x="322" y="658"/>
      <point x="253" y="658" type="curve" smooth="yes"/>
      <point x="186" y="658"/>
      <point x="141" y="621"/>
      <point x="110" y="573" type="curve"/>
      <point x="113" y="613"/>
      <point x="124" y="637"/>
      <point x="148" y="641" type="curve"/>
      <point x="148" y="533" type="line"/>
      <point x="60" y="533" type="line"/>
      <point x="60" y="626" type="line"/>
      <point x="89" y="670"/>
      <point x="162" y="718"/>
      <point x="255" y="718" type="curve" smooth="yes"/>
      <point x="379" y="718"/>
      <point x="459" y="664"/>
      <point x="459" y="567" type="curve" smooth="yes"/>
      <point x="459" y="382"/>
      <point x="184" y="419"/>
      <point x="184" y="298" type="curve" smooth="yes"/>
      <point x="184" y="260"/>
      <point x="212" y="243"/>
      <point x="258" y="243" type="curve" smooth="yes"/>
      <point x="309" y="243"/>
      <point x="346.7633607555699" y="276.7016287787621"/>
      <point x="370" y="306" type="curve"/>
    </contour>
    <component base="period" xOffset="125" yOffset="-1"/>
  </outline>
</glyph>
<glyph name="ruble.lin" format="1">
  <advance width="600"/>
  <outline>
    <contour>
      <point x="48" y="230" type="line"/>
      <point x="48" y="178" type="line"/>
      <point x="423" y="178" type="line"/>
      <point x="423" y="230" type="line"/>
    </contour>
    <contour>
      <point x="329" y="333" type="line" smooth="yes"/>
      <point x="476" y="333"/>
      <point x="567" y="412"/>
      <point x="567" y="524" type="curve"/>
      <point x="567" y="637"/>
      <point x="481" y="710"/>
      <point x="334" y="710" type="curve" smooth="yes"/>
      <point x="48" y="710" type="line"/>
      <point x="48" y="663" type="line"/>
      <point x="59" y="663" type="line" smooth="yes"/>
      <point x="108" y="663"/>
      <point x="144" y="656"/>
      <point x="144" y="627" type="curve" smooth="yes"/>
      <point x="144" y="83" type="line" smooth="yes"/>
      <point x="144" y="54"/>
      <point x="108" y="47"/>
      <point x="59" y="47" type="curve" smooth="yes"/>
      <point x="48" y="47" type="line"/>
      <point x="48" y="0" type="line"/>
      <point x="341" y="0" type="line"/>
      <point x="341" y="47" type="line"/>
      <point x="314" y="47" type="line" smooth="yes"/>
      <point x="280" y="47"/>
      <point x="237" y="50"/>
      <point x="237" y="57" type="curve" smooth="yes"/>
      <point x="237" y="653" type="line"/>
      <point x="333" y="653" type="line" smooth="yes"/>
      <point x="425" y="653"/>
      <point x="470" y="604"/>
      <point x="470" y="523" type="curve"/>
      <point x="470" y="440"/>
      <point x="425" y="385"/>
      <point x="328" y="385" type="curve" smooth="yes"/>
      <point x="48" y="385" type="line"/>
      <point x="48" y="333" type="line"/>
    </contour>
  </outline>
</glyph>
<glyph name="seven.oldalt" format="1">
  <advance width="600"/>
  <outline>
    <contour>
      <point x="242" y="471" type="line" smooth="yes"/>
      <point x="156" y="471"/>
      <point x="121" y="464"/>
      <point x="117" y="428" type="curve" smooth="yes"/>
      <point x="108" y="338" type="line"/>
      <point x="55" y="338" type="line"/>
      <point x="55" y="548" type="line"/>
      <point x="514" y="548" type="line"/>
      <point x="514" y="476" type="line"/>
      <point x="255" y="-135" type="line"/>
      <point x="153" y="-135" type="line"/>
      <point x="450" y="488" type="line"/>
      <point x="466" y="471" type="line"/>
    </contour>
  </outline>
</glyph>
<glyph name="sterling.lin" format="1">
  <advance width="600"/>
  <outline>
    <contour>
      <point x="49" y="364" type="line"/>
      <point x="49" y="312" type="line"/>
      <point x="423" y="312" type="line"/>
      <point x="423" y="364" type="line"/>
    </contour>
    <contour>
      <point x="28" y="-11" type="line"/>
      <point x="180" y="22"/>
      <point x="254" y="110"/>
      <point x="254" y="237" type="curve" smooth="yes"/>
      <point x="254" y="351"/>
      <point x="192" y="412"/>
      <point x="192" y="524" type="curve" smooth="yes"/>
      <point x="192" y="607"/>
      <point x="251" y="658"/>
      <point x="328" y="658" type="curve" smooth="yes"/>
      <point x="407" y="658"/>
      <point x="452" y="619"/>
      <point x="480" y="570" type="curve"/>
      <point x="479" y="610"/>
      <point x="468" y="632"/>
      <point x="442" y="634" type="curve"/>
      <point x="442" y="528" type="line"/>
      <point x="530" y="528" type="line"/>
      <point x="530" y="619" type="line"/>
      <point x="503" y="665"/>
      <point x="434" y="718"/>
      <point x="328" y="718" type="curve" smooth="yes"/>
      <point x="194" y="718"/>
      <point x="98" y="638"/>
      <point x="98" y="519" type="curve" smooth="yes"/>
      <point x="98" y="408"/>
      <point x="176" y="337"/>
      <point x="176" y="222" type="curve" smooth="yes"/>
      <point x="176" y="134"/>
      <point x="137" y="88"/>
      <point x="28" y="55" type="curve"/>
    </contour>
    <contour>
      <point x="165" y="121" type="curve"/>
      <point x="273" y="34"/>
      <point x="322" y="-10"/>
      <point x="401" y="-10" type="curve" smooth="yes"/>
      <point x="502" y="-10"/>
      <point x="557" y="76"/>
      <point x="574" y="174" type="curve"/>
      <point x="518" y="192" type="line"/>
      <point x="499" y="115"/>
      <point x="466" y="80"/>
      <point x="405" y="80" type="curve" smooth="yes"/>
      <point x="350" y="80"/>
      <point x="279" y="104"/>
      <point x="200" y="171" type="curve"/>
      <point x="184" y="162"/>
      <point x="168" y="139"/>
    </contour>
  </outline>
</glyph>
<glyph name="two.old" format="1">
  <advance width="600"/>
  <outline>
    <contour>
      <point x="348" y="72" type="line" smooth="yes"/>
      <point x="428" y="72"/>
      <point x="458" y="78"/>
      <point x="463" y="111" type="curve" smooth="yes"/>
      <point x="472" y="174" type="line"/>
      <point x="530" y="174" type="line"/>
      <point x="530" y="0" type="line"/>
      <point x="67" y="0" type="line"/>
      <point x="67" y="89" type="line"/>
      <point x="238" y="182"/>
      <point x="409" y="270"/>
      <point x="409" y="397" type="curve" smooth="yes"/>
      <point x="409" y="470"/>
      <point x="368" y="500"/>
      <point x="294" y="500" type="curve" smooth="yes"/>
      <point x="220" y="500"/>
      <point x="162" y="459"/>
      <point x="131" y="409" type="curve"/>
      <point x="134" y="449"/>
      <point x="149" y="472"/>
      <point x="173" y="474" type="curve"/>
      <point x="173" y="368" type="line"/>
      <point x="85" y="368" type="line"/>
      <point x="85" y="459" type="line"/>
      <point x="114" y="505"/>
      <point x="196" y="558"/>
      <point x="294" y="558" type="curve" smooth="yes"/>
      <point x="428" y="558"/>
      <point x="503" y="500"/>
      <point x="503" y="394" type="curve" smooth="yes"/>
      <point x="503" y="250"/>
      <point x="282" y="133"/>
      <point x="100" y="44" type="curve"/>
      <point x="93" y="49"/>
      <point x="91" y="62"/>
      <point x="95" y="72" type="curve"/>
    </contour>
  </outline>
</glyph>
